<?xml version="1.0" encoding="utf-8"?>
<!-- Generator: Adobe Illustrator 25.4.1, SVG Export Plug-In . SVG Version: 6.00 Build 0)  -->
<svg version="1.1" id="Capa_1" xmlns="http://www.w3.org/2000/svg" xmlns:xlink="http://www.w3.org/1999/xlink" x="0px" y="0px"
	 viewBox="0 0 611 447.37" style="enable-background:new 0 0 611 447.37;" xml:space="preserve">
<style type="text/css">
	.st0{fill:#FFFFFF;}
	.st1{fill:#B8B8B8;}
	.st2{fill:#7BABF7;}
	.st3{fill-rule:evenodd;clip-rule:evenodd;fill:#999999;}
	.st4{fill-rule:evenodd;clip-rule:evenodd;fill:#D8D8D8;}
	.st5{fill:#4989F5;}
	.st6{fill:url(#SVGID_1_);}
	.st7{fill:#3C4BA6;}
	.st8{fill:#3F51B5;}
	.st9{fill-rule:evenodd;clip-rule:evenodd;fill:#709BE0;}
	.st10{fill-rule:evenodd;clip-rule:evenodd;fill:#3C4BA6;}
	.st11{fill:#3780FF;}
	.st12{fill:#38B137;}
	.st13{fill:#FA3913;}
	.st14{fill:#FCBD06;}
</style>
<g>
	<g>
		<path class="st0" d="M75.25,247.93h5.43c18.86,0.41,37.42,8,50.75,21.43c-4.92,5.02-9.94,9.84-14.76,14.86
			c-7.48-6.77-16.51-11.99-26.35-13.84c-14.56-3.08-30.24-0.31-42.44,8c-13.33,8.71-22.35,23.48-24.3,39.26
			c-2.15,15.58,2.26,31.99,12.4,44.08c9.74,11.79,24.6,19.17,39.98,19.68c14.35,0.82,29.32-3.59,39.78-13.63
			c8.2-7.07,11.99-17.84,13.22-28.29c-17.02,0-34.04,0.1-51.05,0v-21.12h71.66c3.69,22.66-1.64,48.18-18.86,64.38
			c-11.48,11.48-27.37,18.25-43.57,19.58c-15.68,1.54-31.88-1.44-45.82-9.02c-16.71-8.92-30.04-23.99-36.6-41.72
			c-6.15-16.3-6.25-34.75-0.51-51.16C9.43,285.45,19.48,272.22,32.4,263C44.8,253.87,59.87,248.85,75.25,247.93z"/>
		<path class="st0" d="M486.34,253.26h21.94v146.39c-7.28,0-14.66,0.1-21.94-0.1C486.44,350.85,486.34,302.05,486.34,253.26
			L486.34,253.26z"/>
		<path class="st0" d="M198.37,304c13.53-2.56,28.19,0.31,39.37,8.41c10.15,7.18,17.22,18.45,19.38,30.75
			c2.77,14.25-0.72,29.83-9.94,41.11c-9.94,12.61-26.24,19.38-42.13,18.35c-14.56-0.82-28.7-8.1-37.32-19.99
			c-9.74-13.12-12.1-31.16-6.77-46.54C166.28,319.58,181.35,306.98,198.37,304 M201.45,323.48c-5.54,1.44-10.66,4.61-14.35,9.12
			c-9.94,11.89-9.33,31.27,1.64,42.34c6.25,6.36,15.68,9.33,24.4,7.59c8.1-1.44,15.17-6.87,19.07-14.04
			c6.77-12.2,4.82-29.01-5.54-38.55C220,323.79,210.26,321.23,201.45,323.48L201.45,323.48z"/>
		<path class="st0" d="M307.04,304c15.48-2.97,32.4,1.33,43.98,12.2c18.86,16.92,20.91,48.59,4.82,68.07
			c-9.74,12.3-25.53,19.07-41.11,18.35c-14.86-0.41-29.52-7.79-38.34-19.99c-9.94-13.43-12.1-31.88-6.46-47.57
			C275.57,319.07,290.33,306.87,307.04,304 M310.11,323.48c-5.54,1.44-10.66,4.61-14.35,9.02c-9.84,11.69-9.43,30.75,1.13,41.93
			c6.25,6.66,15.99,9.94,25.01,8.1c8-1.54,15.17-6.87,19.07-14.04c6.66-12.3,4.72-29.11-5.74-38.65
			C328.57,323.69,318.83,321.23,310.11,323.48L310.11,323.48z"/>
		<path class="st0" d="M399.2,309.95c11.79-7.38,27.47-9.43,40.19-3.08c4,1.74,7.28,4.72,10.46,7.69c0.1-2.77,0-5.64,0.1-8.51
			c6.87,0.1,13.74,0,20.71,0.1v90.42c-0.1,13.63-3.59,28.09-13.43,38.03c-10.76,10.97-27.27,14.35-42.13,12.1
			c-15.89-2.36-29.73-13.94-35.88-28.6c6.15-2.97,12.61-5.33,18.97-8.1c3.59,8.41,10.87,15.58,19.99,17.22
			c9.12,1.64,19.68-0.62,25.63-8.2c6.36-7.79,6.36-18.45,6.05-27.99c-4.72,4.61-10.15,8.71-16.71,10.25
			c-14.25,4-29.93-0.92-40.9-10.56c-11.07-9.64-17.63-24.5-17.02-39.26C375.52,334.76,384.95,318.66,399.2,309.95 M420.42,323.07
			c-6.25,1.03-12.1,4.51-16.1,9.33c-9.64,11.48-9.64,29.83,0.1,41.11c5.54,6.66,14.45,10.35,23.07,9.43
			c8.1-0.82,15.58-5.95,19.58-13.02c6.77-11.99,5.64-28.29-3.49-38.75C437.95,324.71,428.93,321.53,420.42,323.07L420.42,323.07z"/>
		<path class="st0" d="M534.63,315.18c12.3-11.48,31.27-15.38,47.05-9.33c14.97,5.64,24.5,19.89,29.32,34.55
			c-22.25,9.23-44.39,18.35-66.64,27.58c3.08,5.84,7.79,11.17,14.15,13.33c8.92,3.18,19.58,2.05,27.06-3.9
			c2.97-2.26,5.33-5.23,7.59-8.1c5.64,3.79,11.28,7.48,16.92,11.28c-8,11.99-21.43,20.4-35.88,21.73
			c-15.99,1.95-33.01-4.2-43.36-16.71C513.81,365.92,515.45,332.91,534.63,315.18 M545.59,334.14c-3.49,5.02-4.92,11.17-4.82,17.22
			c14.86-6.15,29.73-12.3,44.59-18.56c-2.46-5.74-8.41-9.23-14.45-10.15C561.18,320.92,551.03,326.15,545.59,334.14z"/>
	</g>
	<g>
		<g id="Grupo_20_00000111905179636478450200000016936311372261800636_" transform="translate(0)">
			<path id="Rectángulo_5_00000173860591174020331120000004137175274846938791_" class="st1" d="M215.89,57.82h173.19
				c16.09,0,29.14,13.05,29.14,29.14v114.8c0,16.09-13.05,29.14-29.14,29.14H215.89c-16.09,0-29.14-13.05-29.14-29.14V86.96
				C186.75,70.86,199.79,57.82,215.89,57.82z"/>
			<path id="Trazado_9_00000181069828855398739050000009947328203696807315_" class="st0" d="M406.38,56.52H198.35
				c-6.44,0-11.46,49.87-11.46,56.33l113.93,118.01h105.56c6.46-0.02,11.69-5.25,11.71-11.71V68.23
				C418.07,61.77,412.84,56.54,406.38,56.52z"/>
			<path id="Trazado_10_00000016060581189123326710000010173152786690398896_" class="st0" d="M239.6,86.8h66.13V0H249.5L239.6,86.8
				z"/>
			<path id="Trazado_11_00000155118133420234447420000012828433343647372200_" class="st1" d="M371.87,86.8h-66.13V0h56.23
				L371.87,86.8z M418.22,16.45l0.08,0.29C418.28,16.65,418.23,16.55,418.22,16.45L418.22,16.45z"/>
			<path id="Trazado_12_00000084494288944629228350000011532876730390762412_" class="st0" d="M418.3,16.75l-0.08-0.29
				c-2.1-9.59-10.58-16.43-20.4-16.45h-35.86l9.9,86.8H438L418.3,16.75z"/>
			<path id="Trazado_13_00000083767714884444948360000014306592542675962806_" class="st2" d="M193.25,16.45l-0.08,0.29
				C193.19,16.65,193.23,16.55,193.25,16.45z"/>
			<path id="Trazado_14_00000179647109110948145670000017234685802663034812_" class="st1" d="M193.17,16.75l0.08-0.29
				c2.09-9.6,10.59-16.46,20.43-16.46h35.83l-9.91,86.8h-66.13L193.17,16.75z"/>
		</g>
		<path id="Trazado_15_00000165227393269559955910000015552398755210164614_" class="st3" d="M239.71,86.78
			c0,18.25-14.8,33.05-33.05,33.05s-33.05-14.8-33.05-33.05H239.71z"/>
		<path id="Trazado_16_00000027605517880272531540000010968123621135016361_" class="st4" d="M305.8,86.78
			c0,18.25-14.8,33.05-33.05,33.05s-33.05-14.8-33.05-33.05H305.8z"/>
		<path id="Trazado_17_00000040564603233863493280000017823232347452581556_" class="st3" d="M371.91,86.78
			c0,18.25-14.8,33.05-33.05,33.05c-18.25,0-33.05-14.8-33.05-33.05H371.91z"/>
		<path id="Trazado_18_00000161615877022547475840000013705625389522236846_" class="st4" d="M437.99,86.78
			c0,18.25-14.8,33.05-33.05,33.05c-18.25,0-33.05-14.8-33.05-33.05H437.99z"/>
		<path id="Trazado_19_00000003810977343818019030000004957964639267589815_" class="st1" d="M404.95,176.32
			c-0.12-1.57-0.31-3.01-0.58-4.86h-36.05c0,5.04,0,10.55,0,15.59h20.88c-0.9,4.75-3.65,8.94-7.64,11.66v-0.09
			c-2.55,1.68-5.43,2.8-8.45,3.3c-3.02,0.57-6.13,0.57-9.15,0c-3.07-0.64-5.97-1.9-8.53-3.7c-3.77-2.67-6.68-6.38-8.38-10.68
			c-0.13-0.34-0.25-0.67-0.37-0.97l0,0l0,0c-1.64-4.82-1.64-10.06,0-14.88c1.15-3.38,3.05-6.47,5.55-9.02
			c5.86-6.07,14.63-8.35,22.71-5.91c3.1,0.95,5.93,2.61,8.27,4.86l7.04-7.04c1.24-1.25,2.53-2.47,3.73-3.77
			c-3.57-3.33-7.77-5.93-12.34-7.64c-8.33-3.01-17.44-3.09-25.82-0.22l-0.87,0.31c-9.04,3.4-16.48,10.06-20.84,18.68
			c-1.54,3.05-2.67,6.29-3.34,9.64c-3.99,19.83,8.11,39.35,27.65,44.6c6.42,1.65,13.15,1.72,19.61,0.2
			c12.31-2.67,22.1-11.98,25.4-24.14C404.88,187.06,405.4,181.67,404.95,176.32z"/>
	</g>
</g>
<g>
	<g>
		<g>
			<path class="st5" d="M-890.02,52.03h213.23c5.07,0,9.17,4.11,9.17,9.17v154.81c0,5.07-4.11,9.17-9.17,9.17h-213.23
				c-5.07,0-9.17-4.11-9.17-9.17V61.2C-899.2,56.13-895.09,52.03-890.02,52.03z"/>
			
				<linearGradient id="SVGID_1_" gradientUnits="userSpaceOnUse" x1="-380.4273" y1="609.3107" x2="-380.3215" y2="609.3107" gradientTransform="matrix(2185.0801 0 0 -1647.9559 830365.125 1004255.0625)">
				<stop  offset="0.03" style="stop-color:#4079D8"/>
				<stop  offset="1" style="stop-color:#4989F5"/>
			</linearGradient>
			<path class="st6" d="M-679.47,50.73H-887.6c-6.45,0-11.46,49.9-11.46,56.34l113.98,118.11h105.62
				c6.47-0.02,11.71-5.26,11.72-11.72V62.45C-667.77,55.98-673.01,50.74-679.47,50.73z"/>
			<path class="st7" d="M-846.32,81.03h66.16V-5.81h-56.26L-846.32,81.03z"/>
			<path class="st2" d="M-713.99,81.03h-66.16V-5.81h56.26L-713.99,81.03z M-667.62,10.65l0.08,0.3
				C-667.56,10.84-667.6,10.74-667.62,10.65z"/>
			<path class="st8" d="M-667.54,10.94l-0.08-0.3c-2.1-9.61-10.6-16.46-20.43-16.46h-35.85l9.9,86.84h66.16L-667.54,10.94z"/>
			<path class="st2" d="M-892.69,10.65l-0.08,0.3C-892.75,10.84-892.71,10.74-892.69,10.65z"/>
			<path class="st2" d="M-892.77,10.94l0.08-0.3c2.1-9.61,10.6-16.46,20.43-16.46h35.85l-9.91,86.84h-66.16L-892.77,10.94z"/>
		</g>
		<path class="st9" d="M-846.21,81c0,18.26-14.8,33.06-33.06,33.06s-33.06-14.8-33.06-33.06H-846.21z"/>
		<path class="st10" d="M-780.08,81c0,18.26-14.8,33.06-33.06,33.06s-33.06-14.8-33.06-33.06H-780.08z"/>
		<path class="st9" d="M-713.95,81c0,18.26-14.8,33.06-33.06,33.06s-33.06-14.8-33.06-33.06H-713.95z"/>
		<path class="st10" d="M-647.84,81c0,18.26-14.8,33.06-33.06,33.06s-33.06-14.8-33.06-33.06H-647.84z"/>
		<path class="st0" d="M-680.9,170.58c-0.12-1.57-0.31-3.01-0.59-4.85h-36.07c0,5.04,0,10.55-0.02,15.6h20.89
			c-0.9,4.75-3.65,8.95-7.65,11.66c0,0,0-0.09-0.01-0.09c-2.56,1.68-5.44,2.8-8.46,3.3c-3.03,0.55-6.13,0.54-9.15-0.04
			c-3.07-0.63-5.97-1.89-8.53-3.7c-3.78-2.68-6.7-6.41-8.39-10.72c-0.13-0.34-0.25-0.67-0.37-1.02v-0.04l0.03-0.02
			c-1.64-4.82-1.65-10.06-0.01-14.88c1.15-3.39,3.05-6.47,5.55-9.03c5.87-6.07,14.63-8.35,22.71-5.91c3.1,0.95,5.93,2.62,8.27,4.87
			l7.05-7.05c1.24-1.26,2.53-2.47,3.73-3.77c-3.57-3.33-7.77-5.93-12.35-7.65c-8.33-3.02-17.44-3.1-25.83-0.23
			c-0.29,0.1-0.58,0.2-0.87,0.31c-9.04,3.4-16.48,10.07-20.85,18.69c-1.54,3.05-2.66,6.3-3.34,9.65
			c-3.99,19.84,8.11,39.37,27.66,44.62c6.39,1.71,13.18,1.67,19.62,0.21c5.85-1.32,11.26-4.13,15.71-8.16
			c4.64-4.27,7.96-9.95,9.7-15.99C-681,181.22-680.47,175.88-680.9,170.58L-680.9,170.58z"/>
	</g>
	<g>
		<path class="st11" d="M-1010.95,241.57h5.44c18.88,0.41,37.45,8,50.79,21.44c-4.92,5.03-9.95,9.85-14.78,14.88
			c-7.49-6.77-16.52-12-26.37-13.85c-14.57-3.08-30.27-0.31-42.48,8c-13.34,8.72-22.37,23.5-24.32,39.3
			c-2.15,15.6,2.26,32.01,12.42,44.12c9.75,11.8,24.63,19.19,40.02,19.7c14.36,0.82,29.34-3.59,39.81-13.65
			c8.21-7.08,12-17.85,13.24-28.32c-17.03,0-34.06,0.1-51.1,0v-21.14h71.72c3.69,22.68-1.64,48.22-18.88,64.44
			c-11.49,11.49-27.4,18.26-43.61,19.6c-15.7,1.54-31.91-1.44-45.86-9.03c-16.72-8.93-30.06-24.01-36.63-41.76
			c-6.16-16.31-6.26-34.78-0.51-51.2c5.23-14.98,15.29-28.22,28.22-37.45C-1041.42,247.52-1026.34,242.49-1010.95,241.57z"/>
		<path class="st12" d="M-599.5,246.91h21.96v146.52c-7.28,0-14.67,0.1-21.96-0.1C-599.4,344.59-599.5,295.75-599.5,246.91
			L-599.5,246.91z"/>
		<path class="st13" d="M-887.72,297.7c13.54-2.57,28.22,0.31,39.4,8.41c10.16,7.18,17.24,18.47,19.39,30.78
			c2.77,14.26-0.72,29.86-9.95,41.14c-9.95,12.62-26.27,19.39-42.17,18.37c-14.57-0.82-28.73-8.11-37.35-20.01
			c-9.75-13.13-12.11-31.19-6.77-46.58C-919.84,313.29-904.75,300.67-887.72,297.7 M-884.64,317.19
			c-5.54,1.44-10.67,4.62-14.36,9.13c-9.95,11.9-9.34,31.29,1.64,42.38c6.26,6.36,15.7,9.34,24.42,7.59
			c8.11-1.44,15.19-6.87,19.08-14.06c6.77-12.21,4.82-29.04-5.54-38.58C-866.07,317.5-875.82,314.93-884.64,317.19L-884.64,317.19z"
			/>
		<path class="st14" d="M-778.96,297.7c15.49-2.98,32.42,1.33,44.02,12.21c18.88,16.93,20.93,48.63,4.82,68.13
			c-9.75,12.31-25.55,19.08-41.14,18.37c-14.88-0.41-29.55-7.8-38.37-20.01c-9.95-13.44-12.11-31.91-6.46-47.61
			C-810.46,312.78-795.68,300.57-778.96,297.7 M-775.88,317.19c-5.54,1.44-10.67,4.62-14.36,9.03c-9.85,11.7-9.44,30.78,1.13,41.97
			c6.26,6.67,16.01,9.95,25.04,8.11c8-1.54,15.19-6.87,19.08-14.06c6.67-12.31,4.72-29.14-5.75-38.68
			C-757.41,317.4-767.16,314.93-775.88,317.19L-775.88,317.19z"/>
		<path class="st11" d="M-686.72,303.65c11.8-7.39,27.5-9.44,40.22-3.08c4,1.74,7.28,4.72,10.47,7.7c0.1-2.77,0-5.64,0.1-8.52
			c6.87,0.1,13.75,0,20.73,0.1v90.5c-0.1,13.65-3.59,28.11-13.44,38.07c-10.77,10.98-27.29,14.36-42.17,12.11
			c-15.9-2.36-29.76-13.95-35.91-28.63c6.16-2.98,12.62-5.34,18.98-8.11c3.59,8.41,10.88,15.6,20.01,17.24
			c9.13,1.64,19.7-0.62,25.65-8.21c6.36-7.8,6.36-18.47,6.05-28.01c-4.72,4.62-10.16,8.72-16.72,10.26
			c-14.26,4-29.96-0.92-40.94-10.57c-11.08-9.64-17.65-24.52-17.03-39.3C-710.42,328.48-700.98,312.37-686.72,303.65
			 M-665.48,316.78c-6.26,1.03-12.11,4.51-16.11,9.34c-9.64,11.49-9.64,29.86,0.1,41.14c5.54,6.67,14.47,10.36,23.09,9.44
			c8.11-0.82,15.6-5.95,19.6-13.03c6.77-12,5.64-28.32-3.49-38.78C-647.93,318.42-656.96,315.24-665.48,316.78L-665.48,316.78z"/>
		<path class="st13" d="M-551.18,308.88c12.31-11.49,31.29-15.39,47.1-9.34c14.98,5.64,24.52,19.91,29.34,34.58
			c-22.27,9.23-44.43,18.37-66.69,27.6c3.08,5.85,7.8,11.18,14.16,13.34c8.93,3.18,19.6,2.05,27.09-3.9
			c2.98-2.26,5.34-5.23,7.59-8.11c5.64,3.8,11.29,7.49,16.93,11.29c-8,12-21.44,20.42-35.91,21.75
			c-16.01,1.95-33.04-4.21-43.4-16.72C-572.01,359.67-570.36,326.63-551.18,308.88 M-540.2,327.86c-3.49,5.03-4.92,11.18-4.82,17.24
			c14.88-6.16,29.76-12.31,44.63-18.57c-2.46-5.75-8.41-9.23-14.47-10.16C-524.6,314.63-534.76,319.86-540.2,327.86z"/>
	</g>
</g>
</svg>
