<?xml version="1.0" encoding="utf-8"?>
<!-- Generator: Adobe Illustrator 25.4.1, SVG Export Plug-In . SVG Version: 6.00 Build 0)  -->
<svg version="1.1" id="Capa_1" xmlns="http://www.w3.org/2000/svg" xmlns:xlink="http://www.w3.org/1999/xlink" x="0px" y="0px"
	 viewBox="0 0 215.06 974.08" style="enable-background:new 0 0 215.06 974.08;" xml:space="preserve">
<style type="text/css">
	.st0{fill:#FFFFFF;}
	.st1{opacity:0.2;fill:#FFFFFF;enable-background:new    ;}
</style>
<g id="design">
	<g>
		<path class="st0" d="M210.1,808.68l-0.67-18.87c-1.48-41.67-33.05-75.45-70.51-75.45H125.4l-3.52-381.21H93.17l-3.49,381.21H76.15
			c-37.47,0-69.04,33.78-70.53,75.45l-0.67,18.87l-1.76,49.85l-3.17,89.15c-0.52,14.58,9.68,26.4,22.81,26.4h169.42
			c13.13,0.01,23.31-11.83,22.79-26.41l-3.16-89.14L210.1,808.68z M72.24,929.1c0.02,7.25-5.88,13.11-13.11,13.11
			c-7.24,0-13.11-5.87-13.11-13.11V782.51c0-7.23,5.86-13.11,13.11-13.11c7.23,0,13.11,5.88,13.11,13.11V929.1z M120.66,929.1
			c-0.02,7.25-5.88,13.11-13.13,13.11c-7.23,0-13.11-5.87-13.11-13.11V782.52c0-7.25,5.88-13.12,13.11-13.11
			c7.25,0,13.11,5.88,13.13,13.11V929.1z M169.05,929.1c0,7.24-5.88,13.11-13.12,13.11c-7.24,0-13.11-5.87-13.11-13.11V782.51
			c0.02-7.24,5.88-13.11,13.11-13.11c7.24,0,13.12,5.87,13.12,13.11V929.1z"/>
		<g>
			<path class="st0" d="M93.17,333.15h28.71v-0.01c9.16-4.06,15.58-13.21,15.58-23.89V26.16C137.46,11.72,125.74,0,111.29,0h-7.54
				C89.31,0,77.59,11.72,77.59,26.16v283.09C77.59,319.93,84.01,329.08,93.17,333.15z M95.95,47.86c0-8.35,5.17-15.12,11.58-15.13
				c6.4,0.01,11.57,6.77,11.57,15.13v37.79c0,8.34-5.17,15.11-11.57,15.11s-11.58-6.77-11.58-15.13V47.86z"/>
		</g>
		<path class="st1" d="M119.1,47.86v37.79c0,8.34-5.17,15.11-11.57,15.11v232.38h14.35v-0.01c9.16-4.06,15.58-13.21,15.58-23.89
			V26.16C137.46,11.72,125.74,0,111.29,0h-3.77v32.73C113.93,32.74,119.1,39.51,119.1,47.86z"/>
	</g>
	<g>
		<path class="st0" d="M107.16,769.42c0.12,0,0.24-0.02,0.37-0.02c7.25,0,13.11,5.88,13.13,13.11V929.1
			c-0.02,7.25-5.88,13.11-13.13,13.11c-0.12,0-0.25-0.02-0.37-0.02v31.89h85.09c13.13,0.01,23.31-11.83,22.79-26.41l-3.16-89.14
			l-1.78-49.85l-0.67-18.87c-1.48-41.67-33.05-75.45-70.51-75.45H125.4l-3.52-381.21h-14.72V769.42z M142.82,782.51
			c0.02-7.24,5.88-13.11,13.12-13.11c7.24,0,13.12,5.87,13.12,13.11V929.1c0,7.24-5.88,13.11-13.12,13.11
			c-7.24,0-13.12-5.87-13.12-13.11V782.51z"/>
	</g>
</g>
<g id="vexels">
</g>
</svg>
