<?xml version="1.0" encoding="utf-8"?>
<!-- Generator: Adobe Illustrator 25.4.1, SVG Export Plug-In . SVG Version: 6.00 Build 0)  -->
<svg version="1.1" id="Capa_1" xmlns="http://www.w3.org/2000/svg" xmlns:xlink="http://www.w3.org/1999/xlink" x="0px" y="0px"
	 viewBox="0 0 921 427.31" style="enable-background:new 0 0 921 427.31;" xml:space="preserve">
<style type="text/css">
	.st0{fill:#FFFFFF;}
	.st1{fill:#212121;}
	.st2{fill:#34E0A1;}
</style>
<path class="st0" d="M914.31,386.65c-3.7,0-6.69,3-6.69,6.69c0,3.7,3,6.69,6.69,6.69c3.7,0,6.69-3,6.69-6.69
	C921,389.65,918,386.65,914.31,386.65z M914.31,398.98c-3.11,0-5.64-2.53-5.64-5.64c0-3.11,2.53-5.64,5.64-5.64
	c3.11,0,5.64,2.53,5.64,5.64v0C919.94,396.45,917.42,398.97,914.31,398.98z M916.48,392.21c0-1.22-0.87-1.94-2.13-1.94h-2.15v6.09
	h1.05v-2.21h1.14l1.11,2.21h1.13l-1.22-2.42C916.09,393.64,916.52,392.95,916.48,392.21z M914.29,393.21h-1.03v-2.02h1.03
	c0.71,0,1.13,0.36,1.13,1.01C915.42,392.86,915,393.21,914.29,393.21z M107.68,318.91v-16.19H82.86v96.32h24.82v-57.76
	c0-10.46,6.73-15.58,17.18-15.58h13.58v-22.97h-11.61C117.76,302.72,109.86,307.46,107.68,318.91z M161.69,264.62
	c-8.49,0-15,6.71-15,15.2c0,8.29,6.72,15,15,15s15-6.72,15-15l0,0C176.71,271.33,170.19,264.62,161.69,264.62L161.69,264.62z
	 M149.3,399.04h24.76v-96.32h-24.74L149.3,399.04z M292.04,350.88c0,27.5-22.29,49.79-49.79,49.79c-10.55,0.04-20.81-3.4-29.21-9.78
	v36.42h-24.76V302.72h24.76v8.14c8.4-6.39,18.67-9.82,29.23-9.77c27.5,0,49.79,22.29,49.79,49.79L292.04,350.88z M267.12,350.88
	c0-14.94-12.11-27.05-27.05-27.05c-14.94,0-27.05,12.11-27.05,27.05c0,14.94,12.11,27.05,27.05,27.05c0,0,0,0,0,0
	c14.94,0.01,27.05-12.09,27.06-27.03c0-0.01,0-0.01,0-0.02H267.12z M722.52,342.43l-14.45-3.96c-9.51-2.47-13.2-5.39-13.2-10.41
	c0-4.9,5.2-8.32,12.66-8.32c7.09,0,12.66,4.65,12.66,10.58v0.54h22.82v-0.54c0-17.48-14.26-29.22-35.48-29.22
	c-21.02,0-36.28,11.74-36.28,27.9c0,12.58,8.35,22.06,22.89,26l13.84,3.77c10.5,2.91,14.42,6.14,14.42,11.92
	c0,6.11-5.66,10.21-14.06,10.21c-8.77,0-14.66-5.54-14.66-13.79v-0.54h-24.24v0.54c0,19.76,15.91,33.56,38.69,33.56
	c21.95,0,37.88-13.47,37.88-32.05c0-9.09-4.08-21.01-23.49-26.19L722.52,342.43z M379.91,302.72h24.76v96.32h-24.76v-8.16
	c-8.4,6.39-18.68,9.82-29.23,9.77c-27.5,0-49.79-22.29-49.79-49.79s22.29-49.79,49.79-49.79c10.55-0.05,20.83,3.38,29.23,9.77
	V302.72z M379.91,350.88c0-14.94-12.11-27.05-27.05-27.04c-14.94,0-27.05,12.11-27.04,27.05c0,14.94,12.11,27.04,27.05,27.04
	c14.94,0.01,27.05-12.1,27.06-27.03c0-0.01,0-0.01,0-0.02L379.91,350.88z M494.11,268.43h24.76v130.61h-24.76v-8.16
	c-8.4,6.39-18.68,9.82-29.23,9.77c-27.5,0-49.79-22.29-49.79-49.79c0-27.5,22.29-49.79,49.79-49.79
	c10.55-0.05,20.83,3.38,29.23,9.77V268.43z M494.11,350.88c0-14.94-12.11-27.05-27.05-27.05s-27.05,12.11-27.05,27.05
	s12.11,27.05,27.05,27.05C482,377.93,494.11,365.83,494.11,350.88C494.12,350.89,494.12,350.88,494.11,350.88L494.11,350.88z
	 M633.88,399.04h24.76v-96.32h-24.76V399.04z M646.27,264.62c-8.49,0-15,6.71-15,15.2c-0.01,8.29,6.7,15.01,14.98,15.02
	c8.29,0.01,15.01-6.7,15.02-14.98c0-0.01,0-0.03,0-0.04C661.26,271.33,654.75,264.62,646.27,264.62L646.27,264.62z M853.08,350.88
	c0,27.5-22.29,49.79-49.79,49.79s-49.79-22.29-49.79-49.79c0-27.5,22.29-49.79,49.79-49.79S853.07,323.38,853.08,350.88
	L853.08,350.88z M830.34,350.88c0-14.94-12.11-27.05-27.05-27.05c-14.94,0-27.05,12.11-27.05,27.05c0,14.94,12.11,27.05,27.05,27.05
	l0,0C818.22,377.93,830.33,365.82,830.34,350.88C830.33,350.88,830.33,350.88,830.34,350.88L830.34,350.88z M95.02,268.43H0v22.09
	h35.17v108.51h24.67V290.53h35.17L95.02,268.43z M575.5,372.67l-22.05-69.95h-26.01l33.05,96.32h29.8l33.24-96.32h-26.01
	L575.5,372.67z M889.38,318.91v-16.19h-24.84v96.32h24.83v-57.76c0-10.46,6.71-15.6,17.17-15.6h13.58v-22.97h-11.61
	c-9.08,0-16.98,4.74-19.15,16.19L889.38,318.91z"/>
<circle class="st0" cx="460.05" cy="126.67" r="126.67"/>
<path class="st1" d="M538.28,101.95l15.29-16.63h-33.89c-35.95-24.46-83.2-24.46-119.14,0h-33.98l15.29,16.63
	c-19.02,17.44-20.3,47-2.86,66.02s47,20.3,66.02,2.86c0.03-0.02,0.05-0.05,0.08-0.07l14.98,16.3l14.97-16.29
	c8.63,8.01,19.97,12.46,31.74,12.44c25.81,0,46.74-20.92,46.74-46.73C553.54,123.33,548,110.79,538.28,101.95L538.28,101.95z
	 M413.32,168.1c-17.46,0-31.62-14.16-31.62-31.62s14.16-31.62,31.62-31.62c17.46,0,31.62,14.16,31.62,31.62
	S430.79,168.1,413.32,168.1L413.32,168.1z M460.06,135.57c0-20.81-15.14-38.66-35.1-46.3c22.46-9.36,47.73-9.36,70.19,0
	C475.19,96.91,460.06,114.76,460.06,135.57z M506.77,168.1c-17.46,0-31.62-14.16-31.62-31.62s14.16-31.62,31.62-31.62
	c17.46,0,31.62,14.16,31.62,31.62S524.24,168.1,506.77,168.1L506.77,168.1z M506.77,119.9c-9.16,0-16.58,7.42-16.58,16.58
	c0,9.16,7.42,16.58,16.58,16.58c9.16,0,16.58-7.42,16.58-16.58c0,0,0,0,0,0C523.35,127.33,515.93,119.9,506.77,119.9
	C506.78,119.9,506.78,119.9,506.77,119.9z M429.9,136.48c0,9.16-7.42,16.58-16.58,16.58c-9.16,0-16.58-7.42-16.58-16.58
	c0-9.16,7.42-16.58,16.58-16.58c0,0,0,0,0,0C422.48,119.9,429.9,127.32,429.9,136.48z"/>
<g>
	<path d="M914.34,975.61c-3.7,0-6.69,3-6.69,6.69s3,6.69,6.69,6.69c3.7,0,6.69-3,6.69-6.69
		C921.03,978.61,918.03,975.61,914.34,975.61z M914.34,987.94c-3.11,0-5.64-2.53-5.64-5.64c0-3.11,2.53-5.64,5.64-5.64
		c3.11,0,5.64,2.53,5.64,5.64v0C919.97,985.41,917.45,987.93,914.34,987.94z M916.51,981.17c0-1.22-0.87-1.94-2.13-1.94h-2.15v6.09
		h1.05v-2.21h1.14l1.11,2.21h1.13l-1.22-2.42C916.12,982.6,916.55,981.91,916.51,981.17z M914.33,982.17h-1.03v-2.02h1.03
		c0.71,0,1.13,0.36,1.13,1.01S915.03,982.17,914.33,982.17z M107.71,907.87v-16.19H82.9V988h24.82v-57.76
		c0-10.46,6.73-15.58,17.18-15.58h13.58v-22.97h-11.61C117.79,891.68,109.89,896.42,107.71,907.87z M161.72,853.57
		c-8.49,0-15,6.71-15,15.2c0,8.29,6.72,15,15,15c8.29,0,15-6.72,15-15l0,0C176.74,860.29,170.22,853.57,161.72,853.57L161.72,853.57
		z M149.34,988h24.76v-96.32h-24.74L149.34,988z M292.07,939.84c0,27.5-22.29,49.79-49.79,49.79c-10.55,0.04-20.81-3.4-29.21-9.78
		v36.42h-24.76V891.68h24.76v8.14c8.4-6.39,18.67-9.82,29.23-9.77c27.5,0,49.79,22.29,49.79,49.79L292.07,939.84z M267.15,939.84
		c0-14.94-12.11-27.05-27.05-27.05s-27.05,12.11-27.05,27.05c0,14.94,12.11,27.05,27.05,27.05c0,0,0,0,0,0
		c14.94,0.01,27.05-12.09,27.06-27.03c0-0.01,0-0.01,0-0.02H267.15z M722.55,931.39l-14.45-3.96c-9.51-2.47-13.2-5.39-13.2-10.41
		c0-4.9,5.2-8.32,12.66-8.32c7.09,0,12.66,4.65,12.66,10.58v0.54h22.82v-0.54c0-17.48-14.26-29.22-35.48-29.22
		c-21.02,0-36.28,11.74-36.28,27.9c0,12.58,8.35,22.06,22.89,26l13.84,3.77c10.5,2.91,14.42,6.14,14.42,11.92
		c0,6.11-5.66,10.21-14.06,10.21c-8.77,0-14.66-5.54-14.66-13.79v-0.54h-24.24v0.54c0,19.76,15.91,33.56,38.69,33.56
		c21.95,0,37.88-13.47,37.88-32.05c0-9.09-4.08-21.01-23.49-26.19H722.55z M379.94,891.68h24.76V988h-24.76v-8.16
		c-8.4,6.39-18.68,9.82-29.23,9.77c-27.5,0-49.79-22.29-49.79-49.79s22.29-49.79,49.79-49.79c10.55-0.05,20.83,3.38,29.23,9.77
		V891.68z M379.94,939.84c0-14.94-12.11-27.05-27.05-27.04c-14.94,0-27.05,12.11-27.04,27.05c0,14.94,12.11,27.04,27.05,27.04
		c14.94,0.01,27.05-12.1,27.06-27.03c0-0.01,0-0.01,0-0.02L379.94,939.84z M494.14,857.39h24.76V988h-24.76v-8.16
		c-8.4,6.39-18.68,9.82-29.23,9.77c-27.5,0-49.79-22.29-49.79-49.79c0-27.5,22.29-49.79,49.79-49.79
		c10.55-0.05,20.83,3.38,29.23,9.77V857.39z M494.14,939.84c0-14.94-12.11-27.05-27.05-27.05c-14.94,0-27.05,12.11-27.05,27.05
		s12.11,27.05,27.05,27.05C482.03,966.89,494.14,954.78,494.14,939.84C494.15,939.85,494.15,939.84,494.14,939.84L494.14,939.84z
		 M633.91,988h24.76v-96.32h-24.76V988z M646.3,853.57c-8.49,0-15,6.71-15,15.2c-0.01,8.29,6.7,15.01,14.98,15.02
		s15.01-6.7,15.02-14.98c0-0.01,0-0.03,0-0.04C661.29,860.29,654.78,853.57,646.3,853.57L646.3,853.57z M853.11,939.84
		c0,27.5-22.29,49.79-49.79,49.79s-49.79-22.29-49.79-49.79c0-27.5,22.29-49.79,49.79-49.79S853.1,912.34,853.11,939.84
		L853.11,939.84z M830.37,939.84c0-14.94-12.11-27.05-27.05-27.05c-14.94,0-27.05,12.11-27.05,27.05s12.11,27.05,27.05,27.05l0,0
		C818.26,966.89,830.37,954.78,830.37,939.84C830.37,939.84,830.37,939.84,830.37,939.84L830.37,939.84z M95.06,857.39H0.03v22.09
		H35.2v108.51h24.67V879.49h35.17L95.06,857.39z M575.53,961.63l-22.05-69.95h-26.01L560.51,988h29.8l33.24-96.32h-26.01
		L575.53,961.63z M889.42,907.87v-16.19h-24.84v96.32h24.83v-57.76c0-10.46,6.71-15.6,17.17-15.6h13.58v-22.97h-11.61
		c-9.08,0-16.98,4.74-19.15,16.19L889.42,907.87z"/>
	<circle class="st2" cx="460.08" cy="715.63" r="126.67"/>
	<path d="M538.31,690.91l15.29-16.63h-33.89c-35.95-24.46-83.2-24.46-119.14,0h-33.98l15.29,16.63c-19.02,17.44-20.3,47-2.86,66.02
		s47,20.3,66.02,2.86c0.03-0.02,0.05-0.05,0.08-0.07l14.98,16.3l14.97-16.29c8.63,8.01,19.97,12.46,31.74,12.44
		c25.81,0,46.74-20.92,46.74-46.73C553.57,712.29,548.03,699.75,538.31,690.91L538.31,690.91z M413.35,757.06
		c-17.46,0-31.62-14.16-31.62-31.62c0-17.46,14.16-31.62,31.62-31.62c17.46,0,31.62,14.16,31.62,31.62
		C444.98,742.9,430.82,757.06,413.35,757.06L413.35,757.06z M460.09,724.53c0-20.81-15.14-38.66-35.1-46.3
		c22.46-9.36,47.73-9.36,70.19,0C475.22,685.87,460.09,703.72,460.09,724.53z M506.81,757.06c-17.46,0-31.62-14.16-31.62-31.62
		c0-17.46,14.16-31.62,31.62-31.62c17.46,0,31.62,14.16,31.62,31.62C538.43,742.9,524.27,757.06,506.81,757.06L506.81,757.06z
		 M506.81,708.86c-9.16,0-16.58,7.42-16.58,16.58s7.42,16.58,16.58,16.58c9.16,0,16.58-7.42,16.58-16.58c0,0,0,0,0,0
		C523.38,716.28,515.96,708.86,506.81,708.86C506.81,708.86,506.81,708.86,506.81,708.86z M429.93,725.44
		c0,9.16-7.42,16.58-16.58,16.58c-9.16,0-16.58-7.42-16.58-16.58c0-9.16,7.42-16.58,16.58-16.58c0,0,0,0,0,0
		C422.51,708.86,429.93,716.28,429.93,725.44z"/>
</g>
</svg>
