<?xml version="1.0" encoding="utf-8"?>
<!-- Generator: Adobe Illustrator 25.4.1, SVG Export Plug-In . SVG Version: 6.00 Build 0)  -->
<svg version="1.1" id="Capa_1" xmlns="http://www.w3.org/2000/svg" xmlns:xlink="http://www.w3.org/1999/xlink" x="0px" y="0px"
	 viewBox="0 0 921 427.31" style="enable-background:new 0 0 921 427.31;" xml:space="preserve">
<style type="text/css">
	.st0{fill:#34E0A1;}
</style>
<g>
	<path d="M914.31,386.65c-3.7,0-6.69,3-6.69,6.69c0,3.7,3,6.69,6.69,6.69c3.7,0,6.69-3,6.69-6.69
		C921,389.65,918,386.65,914.31,386.65z M914.31,398.98c-3.11,0-5.64-2.53-5.64-5.64c0-3.11,2.53-5.64,5.64-5.64
		c3.11,0,5.64,2.53,5.64,5.64v0C919.94,396.45,917.42,398.97,914.31,398.98z M916.48,392.21c0-1.22-0.87-1.94-2.13-1.94h-2.15v6.09
		h1.05v-2.21h1.14l1.11,2.21h1.13l-1.22-2.42C916.09,393.64,916.52,392.95,916.48,392.21z M914.29,393.21h-1.03v-2.02h1.03
		c0.71,0,1.13,0.36,1.13,1.01C915.42,392.86,915,393.21,914.29,393.21z M107.68,318.91v-16.19H82.86v96.32h24.82v-57.76
		c0-10.46,6.73-15.58,17.18-15.58h13.58v-22.97h-11.61C117.76,302.72,109.86,307.46,107.68,318.91z M161.69,264.62
		c-8.49,0-15,6.71-15,15.2c0,8.29,6.72,15,15,15s15-6.72,15-15l0,0C176.71,271.33,170.19,264.62,161.69,264.62L161.69,264.62z
		 M149.3,399.04h24.76v-96.32h-24.74L149.3,399.04z M292.04,350.88c0,27.5-22.29,49.79-49.79,49.79
		c-10.55,0.04-20.81-3.4-29.21-9.78v36.42h-24.76V302.72h24.76v8.14c8.4-6.39,18.67-9.82,29.23-9.77c27.5,0,49.79,22.29,49.79,49.79
		L292.04,350.88z M267.12,350.88c0-14.94-12.11-27.05-27.05-27.05c-14.94,0-27.05,12.11-27.05,27.05
		c0,14.94,12.11,27.05,27.05,27.05c0,0,0,0,0,0c14.94,0.01,27.05-12.09,27.06-27.03c0-0.01,0-0.01,0-0.02H267.12z M722.52,342.43
		l-14.45-3.96c-9.51-2.47-13.2-5.39-13.2-10.41c0-4.9,5.2-8.32,12.66-8.32c7.09,0,12.66,4.65,12.66,10.58v0.54h22.82v-0.54
		c0-17.48-14.26-29.22-35.48-29.22c-21.02,0-36.28,11.74-36.28,27.9c0,12.58,8.35,22.06,22.89,26l13.84,3.77
		c10.5,2.91,14.42,6.14,14.42,11.92c0,6.11-5.66,10.21-14.06,10.21c-8.77,0-14.66-5.54-14.66-13.79v-0.54h-24.24v0.54
		c0,19.76,15.91,33.56,38.69,33.56c21.95,0,37.88-13.47,37.88-32.05c0-9.09-4.08-21.01-23.49-26.19L722.52,342.43z M379.91,302.72
		h24.76v96.32h-24.76v-8.16c-8.4,6.39-18.68,9.82-29.23,9.77c-27.5,0-49.79-22.29-49.79-49.79s22.29-49.79,49.79-49.79
		c10.55-0.05,20.83,3.38,29.23,9.77V302.72z M379.91,350.88c0-14.94-12.11-27.05-27.05-27.04c-14.94,0-27.05,12.11-27.04,27.05
		c0,14.94,12.11,27.04,27.05,27.04c14.94,0.01,27.05-12.1,27.06-27.03c0-0.01,0-0.01,0-0.02L379.91,350.88z M494.11,268.43h24.76
		v130.61h-24.76v-8.16c-8.4,6.39-18.68,9.82-29.23,9.77c-27.5,0-49.79-22.29-49.79-49.79c0-27.5,22.29-49.79,49.79-49.79
		c10.55-0.05,20.83,3.38,29.23,9.77V268.43z M494.11,350.88c0-14.94-12.11-27.05-27.05-27.05s-27.05,12.11-27.05,27.05
		s12.11,27.05,27.05,27.05C482,377.93,494.11,365.83,494.11,350.88C494.12,350.89,494.12,350.88,494.11,350.88L494.11,350.88z
		 M633.88,399.04h24.76v-96.32h-24.76V399.04z M646.27,264.62c-8.49,0-15,6.71-15,15.2c-0.01,8.29,6.7,15.01,14.98,15.02
		c8.29,0.01,15.01-6.7,15.02-14.98c0-0.01,0-0.03,0-0.04C661.26,271.33,654.75,264.62,646.27,264.62L646.27,264.62z M853.08,350.88
		c0,27.5-22.29,49.79-49.79,49.79s-49.79-22.29-49.79-49.79c0-27.5,22.29-49.79,49.79-49.79S853.07,323.38,853.08,350.88
		L853.08,350.88z M830.34,350.88c0-14.94-12.11-27.05-27.05-27.05c-14.94,0-27.05,12.11-27.05,27.05
		c0,14.94,12.11,27.05,27.05,27.05l0,0C818.22,377.93,830.33,365.82,830.34,350.88C830.33,350.88,830.33,350.88,830.34,350.88
		L830.34,350.88z M95.02,268.43H0v22.09h35.17v108.51h24.67V290.53h35.17L95.02,268.43z M575.5,372.67l-22.05-69.95h-26.01
		l33.05,96.32h29.8l33.24-96.32h-26.01L575.5,372.67z M889.38,318.91v-16.19h-24.84v96.32h24.83v-57.76
		c0-10.46,6.71-15.6,17.17-15.6h13.58v-22.97h-11.61c-9.08,0-16.98,4.74-19.15,16.19L889.38,318.91z"/>
	<circle class="st0" cx="460.05" cy="126.67" r="126.67"/>
	<path d="M538.28,101.95l15.29-16.63h-33.89c-35.95-24.46-83.2-24.46-119.14,0h-33.98l15.29,16.63c-19.02,17.44-20.3,47-2.86,66.02
		s47,20.3,66.02,2.86c0.03-0.02,0.05-0.05,0.08-0.07l14.98,16.3l14.97-16.29c8.63,8.01,19.97,12.46,31.74,12.44
		c25.81,0,46.74-20.92,46.74-46.73C553.54,123.33,548,110.79,538.28,101.95L538.28,101.95z M413.32,168.1
		c-17.46,0-31.62-14.16-31.62-31.62s14.16-31.62,31.62-31.62c17.46,0,31.62,14.16,31.62,31.62S430.79,168.1,413.32,168.1
		L413.32,168.1z M460.06,135.57c0-20.81-15.14-38.66-35.1-46.3c22.46-9.36,47.73-9.36,70.19,0
		C475.19,96.91,460.06,114.76,460.06,135.57z M506.77,168.1c-17.46,0-31.62-14.16-31.62-31.62s14.16-31.62,31.62-31.62
		c17.46,0,31.62,14.16,31.62,31.62S524.24,168.1,506.77,168.1L506.77,168.1z M506.77,119.9c-9.16,0-16.58,7.42-16.58,16.58
		c0,9.16,7.42,16.58,16.58,16.58c9.16,0,16.58-7.42,16.58-16.58c0,0,0,0,0,0C523.35,127.33,515.93,119.9,506.77,119.9
		C506.78,119.9,506.78,119.9,506.77,119.9z M429.9,136.48c0,9.16-7.42,16.58-16.58,16.58c-9.16,0-16.58-7.42-16.58-16.58
		c0-9.16,7.42-16.58,16.58-16.58c0,0,0,0,0,0C422.48,119.9,429.9,127.32,429.9,136.48z"/>
</g>
</svg>
